<?xml version="1.0" encoding="UTF-8"?>
<svg width="31px" height="35px" viewBox="0 0 31 35" version="1.1" xmlns="http://www.w3.org/2000/svg" xmlns:xlink="http://www.w3.org/1999/xlink">
    <!-- Generator: Sketch 55.2 (78181) - https://sketchapp.com -->
    <title>noun_Tiger_1647456</title>
    <desc>Created with Sketch.</desc>
    <g id="Page-1" stroke="none" stroke-width="1" fill="none" fill-rule="evenodd">
        <g id="Page-Main" transform="translate(-1098.000000, -659.000000)" fill="#242149" fill-rule="nonzero">
            <g id="Group-17" transform="translate(704.000000, 186.000000)">
                <g id="Group-16" transform="translate(48.000000, 447.500000)">
                    <g id="Group-15" transform="translate(7.500000, 25.476412)">
                        <g id="noun_Tiger_1647456" transform="translate(339.250000, 0.000000)">
                            <g id="Group">
                                <path d="M15.0538787,34.2854637 C14.0584455,34.2854637 13.0630133,34.0673349 12.1355819,33.6310817 C10.6923882,32.9515926 9.52433771,31.7814505 8.84694126,30.3361642 L6.40151543,24.4912043 C3.35506331,21.7151859 1.84909931,17.7810582 2.26652149,13.6669878 C2.90364023,7.37845006 8.156468,2.43058114 14.4852846,2.15700743 L14.4852846,2.15700743 C18.0286675,2.01629737 21.3894943,3.26804183 23.9447681,5.71556034 C26.5010883,8.16412571 27.9092369,11.4616579 27.9092369,15.0003329 C27.9092369,18.6043957 26.3797329,22.0525768 23.7062406,24.4906807 L21.2744146,30.3053017 C20.5834182,31.7814501 19.4153688,32.9515921 17.9721751,33.6310813 C17.0447431,34.0673349 16.0493098,34.2854637 15.0538787,34.2854637 Z M14.5543311,3.76288114 C9.01799006,4.00193131 4.42268149,8.32942091 3.865072,13.8291451 C3.49472697,17.4844687 4.85788891,20.977635 7.6061816,23.4125998 C7.696676,23.4931553 7.76781577,23.5925423 7.81437029,23.7039598 L10.3157665,29.6849233 C10.8205447,30.761433 11.7150215,31.6569561 12.8197785,32.1769038 C14.2394334,32.8454066 15.8678001,32.8454066 17.2874538,32.1769038 C18.3927351,31.6569562 19.2872119,30.7614331 19.8055899,29.6540614 L22.2933851,23.7039598 C22.3399397,23.5925423 22.4110806,23.4931552 22.5015738,23.4125998 C24.917184,21.272657 26.3023159,18.2063271 26.3023159,15.0003335 C26.3023159,11.9036658 25.0704477,9.01832469 22.8332106,6.87576457 C20.5975407,4.73425131 17.6635525,3.62949429 14.5543311,3.76288114 L14.5543311,3.76288114 Z" id="Shape"></path>
                                <path d="M4.98029109,9.21448194 C4.93687497,9.21448194 4.89293566,9.21081989 4.84899634,9.20349669 C4.62040766,9.16583474 4.41902,9.0308784 4.29714103,8.83367486 C1.78109806,4.76772914 3.75783931,1.40742549 5.1544784,0.198574057 C5.30041943,0.0719874286 5.4871608,0.00241702857 5.68017954,0.00241702857 C9.42390549,0.00241702857 11.0904562,3.38887474 11.1595033,3.53324629 C11.3211375,3.87011349 11.2290746,4.27445886 10.9371926,4.50775543 C10.8791296,4.55378686 10.8053752,4.60034137 10.7373733,4.62911131 C8.67746183,5.49952606 6.92721657,6.95370503 5.67599474,8.83419817 C5.63205554,8.9001072 5.57870103,8.95921543 5.51750023,9.00943211 L5.4908224,9.03140149 C5.34592766,9.15066526 5.16546309,9.21448194 4.98029109,9.21448194 Z M5.99821577,1.62084446 C5.43066789,2.23651669 3.99165886,4.16042663 5.10687737,6.90244217 C6.25191269,5.49952571 7.66685909,4.35658354 9.27430274,3.53847703 C8.72715429,2.80720331 7.65639817,1.74376983 5.99821577,1.62084446 Z" id="Shape"></path>
                                <path d="M25.1274654,9.21448194 C24.9422934,9.21448194 24.7618278,9.15066537 24.6169325,9.03140149 C24.5557317,8.9811848 24.4756993,8.9001072 24.4317605,8.83419794 C23.1805398,6.9537048 21.4302935,5.49952583 19.3698599,4.62911109 C19.3018581,4.60034114 19.2385646,4.5626792 19.1805026,4.51612469 C18.8886194,4.28282811 18.7860957,3.87011337 18.9477277,3.53324617 C19.0167759,3.38887463 20.6838509,0.00241691429 24.4275752,0.00241691429 C24.6205945,0.00241691429 24.8073359,0.0719873143 24.9532775,0.198574057 C26.3499166,1.40742537 28.3266578,4.76772903 25.8106144,8.83367486 C25.6887359,9.0308784 25.4873482,9.16583474 25.2587585,9.20349669 C25.2148198,9.21081977 25.170881,9.21448194 25.1274654,9.21448194 Z M20.8334525,3.53847726 C22.440373,4.35658377 23.8558437,5.49952594 25.0008784,6.9024424 C26.1150512,4.16304183 24.6791795,2.23965509 24.1090175,1.62084469 C22.4513571,1.74376983 21.3811231,2.80668011 20.8334525,3.53847726 Z" id="Shape"></path>
                                <path d="M15.0538787,22.7304971 C14.8964288,22.7304971 14.7389799,22.6844657 14.6029783,22.5918798 L11.9373321,20.7830485 C11.7165897,20.6334448 11.5847723,20.3844562 11.5847723,20.1182056 L11.5847723,18.2141725 C11.5847723,17.7705973 11.9446552,17.4107144 12.3882326,17.4107144 L17.7195238,17.4107144 C18.163099,17.4107144 18.522984,17.7705973 18.522984,18.2141725 L18.522984,20.1182056 C18.522984,20.3844562 18.3911655,20.6334448 18.1704231,20.7830485 L15.5047781,22.5918798 C15.3687766,22.6844657 15.2113277,22.7304971 15.0538787,22.7304971 Z M13.1916918,19.6924134 L15.0538787,20.9561898 L16.9160635,19.6924134 L16.9160635,19.0176327 L13.1916918,19.0176327 L13.1916918,19.6924134 Z" id="Shape"></path>
                                <path d="M15.0538787,26.4009901 C14.6103014,26.4009901 14.2504185,26.0411072 14.2504185,25.5975298 L14.2504185,21.9270368 C14.2504185,21.4834594 14.6103014,21.1235766 15.0538787,21.1235766 C15.4974539,21.1235766 15.8573368,21.4834594 15.8573368,21.9270368 L15.8573368,25.5975298 C15.8573368,26.0411072 15.4974539,26.4009901 15.0538787,26.4009901 Z" id="Path"></path>
                                <path d="M20.4249224,31.0104217 C20.2397504,31.0104217 20.0540553,30.9466051 19.9023611,30.8168792 L15.0366167,26.6416102 L10.0772389,30.6217694 C9.73200217,30.9000504 9.22670194,30.8440813 8.94789669,30.4977983 C8.67013874,30.1520385 8.72558594,29.6462139 9.07186777,29.3684561 L14.5511921,24.9708731 C14.8524899,24.7281603 15.2835126,24.7365309 15.5769631,24.987612 L20.948532,29.5970437 C21.2854003,29.8863111 21.3241074,30.3937029 21.0353632,30.730048 C20.8763471,30.91522 20.6514195,31.0104217 20.4249224,31.0104217 Z" id="Path"></path>
                                <path d="M10.9800851,14.6064507 C10.8602993,14.6064507 10.7389429,14.5797729 10.6243875,14.5232794 L6.80429086,12.6344168 C6.40674594,12.4377365 6.24354343,11.9559739 6.44022377,11.5579059 C6.63690411,11.1598379 7.1176192,10.9966353 7.51673463,11.1938389 L11.3368303,13.0827015 C11.7343752,13.2793818 11.8975777,13.7611432 11.7008974,14.1592123 C11.5607104,14.4422019 11.2761525,14.6064507 10.9800851,14.6064507 Z" id="Path"></path>
                                <path d="M19.1271471,14.6064507 C18.8310808,14.6064507 18.5465218,14.4422018 18.406335,14.1592123 C18.2096558,13.7611432 18.3728571,13.2793818 18.7704031,13.0827015 L22.5910208,11.1938389 C22.9869973,10.9966353 23.4708513,11.1598379 23.6675327,11.5579059 C23.8642119,11.9559739 23.7010105,12.4377365 23.3034646,12.6344168 L19.4828447,14.5232794 C19.3682905,14.5797729 19.246933,14.6064507 19.1271471,14.6064507 Z" id="Path"></path>
                                <path d="M4.54246789,25.131461 C4.18676971,25.131461 3.86193349,24.8939798 3.76620857,24.5340969 C3.65269897,24.1051658 3.90796491,23.6652505 4.33689543,23.5512173 L8.48705829,22.4496002 C8.91808091,22.3387059 9.35642674,22.5918798 9.4699368,23.0202855 C9.58344583,23.4492166 9.32818046,23.8891319 8.89924937,24.0031651 L4.74908651,25.1047822 C4.68003954,25.1230905 4.61046926,25.131461 4.54246789,25.131461 Z" id="Path"></path>
                                <path d="M8.35942514,20.8740648 C8.33274846,20.8740648 8.30607063,20.8730185 8.2793928,20.8704027 L0.780434743,20.1291896 C0.338950286,20.0852509 0.0162061714,19.6918902 0.0596224,19.2504054 C0.103561714,18.8089229 0.504245486,18.4882703 0.938406629,18.5295933 L8.43736469,19.2708064 C8.87884937,19.3147451 9.20159349,19.7081058 9.1581768,20.1495906 C9.11685394,20.5643986 8.76743211,20.8740648 8.35942514,20.8740648 Z" id="Path"></path>
                                <path d="M2.8021616,32.1052399 C2.56834194,32.1052399 2.33661486,32.0037624 2.17759703,31.8081273 C1.89826914,31.4634138 1.95057783,30.9575915 2.29529131,30.6777387 L9.3250416,24.9734889 C9.66923189,24.692592 10.1755795,24.7464687 10.4554302,25.0911822 C10.7347586,25.4358957 10.6824494,25.9417201 10.3377359,26.2215707 L3.3079856,31.9258227 C3.15890617,32.0466549 2.9800104,32.1052399 2.8021616,32.1052399 Z" id="Path"></path>
                                <path d="M25.4575326,25.131461 C25.3895307,25.131461 25.3199593,25.1230905 25.2509133,25.1047822 L21.1007494,24.0031651 C20.6718205,23.8891319 20.4165539,23.4492166 20.5300641,23.0202855 C20.6440952,22.5918798 21.0850568,22.3387059 21.5129416,22.4496002 L25.6631055,23.5512173 C26.0920344,23.6652505 26.3473009,24.1051658 26.2337907,24.5340969 C26.1380658,24.8939798 25.8132303,25.131461 25.4575326,25.131461 Z" id="Path"></path>
                                <path d="M21.6405749,20.8740648 C21.2325679,20.8740648 20.8831461,20.5643986 20.841823,20.1495906 C20.7984073,19.7081059 21.1211504,19.3147453 21.5626351,19.2708064 L29.0615931,18.5295933 C29.5015083,18.4893166 29.8964385,18.8089229 29.9403774,19.2504054 C29.983793,19.6918901 29.6610499,20.0852507 29.2195653,20.1291896 L21.7206072,20.8704027 C21.6939305,20.8730185 21.6672515,20.8740648 21.6405749,20.8740648 Z" id="Path"></path>
                                <path d="M27.197839,32.1052399 C27.019989,32.1052399 26.841095,32.0466549 26.6920145,31.9258226 L19.6622642,26.2215706 C19.3175507,25.9417201 19.2652415,25.4358955 19.5445688,25.0911821 C19.8244215,24.7464686 20.3291975,24.692592 20.6749574,24.9734888 L27.7047098,30.6777386 C28.0494233,30.9575913 28.1017304,31.4634137 27.8224031,31.8081272 C27.6633846,32.0037624 27.4316581,32.1052399 27.197839,32.1052399 Z" id="Path"></path>
                            </g>
                        </g>
                    </g>
                </g>
            </g>
        </g>
    </g>
</svg>